<svg xmlns="http://www.w3.org/2000/svg" width="1254" height="1254" viewBox="0 0 1254 1254" fill="none">
<g shape-rendering="geometricPrecision">
<path fill="#fcfcfc" fill-rule="evenodd" d="M 767,1126 L 750,1153 L 761,1170 L 773,1184 L 770,1189 L 785,1193 L 808,1193 L 818,1191 L 811,1183 L 825,1161 L 828,1151 L 809,1126 Z M 493,1126 L 493,1128 L 511,1147 L 517,1163 L 528,1160 L 522,1144 L 508,1126 L 503,1122 Z M 515,1114 L 515,1116 L 532,1136 L 537,1145 L 540,1156 L 550,1153 L 547,1141 L 535,1121 L 523,1110 Z M 720,1076 L 703,1098 L 707,1127 L 714,1143 L 743,1149 L 760,1122 L 751,1095 L 749,1083 Z M 859,1074 L 829,1082 L 816,1122 L 835,1148 L 874,1142 L 882,1123 L 885,1099 Z M 857,1041 L 847,1039 L 842,1032 L 840,1036 L 832,1042 L 820,1041 L 814,1034 L 806,1040 L 793,1039 L 792,1051 L 825,1075 L 856,1067 Z M 825,1027 L 826,1029 L 829,1028 Z M 785,1028 L 779,1027 L 775,1033 L 769,1036 L 758,1035 L 752,1030 L 746,1033 L 733,1032 L 723,1043 L 723,1068 L 748,1075 L 754,1074 L 785,1052 Z M 854,1026 L 854,1028 L 857,1028 L 857,1026 Z M 799,1025 L 799,1027 L 802,1028 L 803,1025 Z M 881,1022 L 884,1023 L 884,1021 Z M 763,1021 L 763,1023 L 766,1023 L 766,1021 Z M 740,1017 L 740,1020 L 743,1020 L 743,1018 Z M 827,976 L 819,974 L 809,984 L 800,1000 L 798,1006 L 799,1011 L 808,1010 L 812,998 L 819,987 L 828,978 Z M 807,971 L 797,969 L 791,975 L 781,990 L 775,1008 L 786,1009 L 788,999 L 794,987 Z M 526,938 L 521,983 L 541,989 L 569,988 L 574,943 L 551,942 Z M 747,853 L 747,855 L 762,860 L 764,864 L 763,873 L 775,876 L 812,874 L 814,839 L 810,829 L 805,824 L 790,817 L 781,815 L 763,831 Z M 499,736 L 492,739 L 484,747 L 480,758 L 480,765 L 482,772 L 491,782 L 499,785 L 508,785 L 517,781 L 526,770 L 528,762 L 527,752 L 522,743 L 517,739 L 510,736 Z M 737,729 L 731,731 L 723,738 L 719,747 L 719,758 L 723,767 L 731,774 L 741,777 L 748,776 L 755,773 L 761,767 L 765,757 L 765,749 L 761,739 L 755,733 L 746,729 Z M 425,686 L 425,692 L 439,707 L 461,725 L 472,731 L 480,723 L 491,717 L 500,715 L 513,716 L 519,678 L 496,695 L 488,697 L 485,696 L 450,661 L 439,670 Z M 823,679 L 818,671 L 796,651 L 794,651 L 763,686 L 757,689 L 748,686 L 727,671 L 733,709 L 744,708 L 757,711 L 766,716 L 774,724 L 788,715 L 820,686 Z M 653,578 L 628,582 L 590,584 L 611,598 L 621,603 L 626,603 L 640,592 Z M 492,373 L 488,375 L 482,383 L 481,397 L 485,405 L 490,409 L 501,410 L 505,408 L 512,399 L 512,385 L 510,380 L 505,375 L 501,373 Z M 699,348 L 692,351 L 687,357 L 685,370 L 688,378 L 693,383 L 697,385 L 705,385 L 715,376 L 716,361 L 711,352 L 706,349 Z M 811,306 L 802,309 L 795,304 L 782,273 L 764,246 L 737,219 L 718,206 L 697,228 L 684,238 L 664,249 L 650,254 L 642,253 L 637,247 L 637,241 L 643,228 L 643,224 L 619,241 L 591,256 L 562,267 L 540,272 L 533,270 L 529,265 L 529,258 L 540,234 L 538,233 L 492,266 L 443,291 L 438,291 L 431,285 L 430,279 L 434,265 L 433,263 L 411,296 L 401,319 L 395,339 L 390,371 L 390,398 L 396,432 L 411,468 L 431,496 L 460,522 L 495,542 L 516,550 L 542,557 L 580,562 L 633,560 L 682,549 L 706,540 L 726,530 L 753,512 L 779,487 L 799,459 L 810,436 L 816,418 L 821,391 L 821,355 L 816,324 Z M 673,463 L 673,470 L 671,474 L 658,489 L 645,497 L 629,502 L 606,503 L 592,500 L 575,491 L 566,481 L 567,473 L 572,469 L 578,469 L 586,477 L 598,483 L 607,485 L 627,484 L 647,475 L 653,469 L 658,460 L 663,457 L 670,459 Z M 500,352 L 518,353 L 534,362 L 547,378 L 554,398 L 554,422 L 546,442 L 531,457 L 518,462 L 499,461 L 483,452 L 472,439 L 467,429 L 463,412 L 464,391 L 471,373 L 484,359 Z M 709,327 L 727,330 L 737,336 L 746,345 L 755,361 L 759,382 L 757,401 L 747,421 L 736,431 L 721,437 L 703,436 L 687,427 L 676,414 L 668,391 L 668,371 L 675,350 L 691,333 Z M 522,308 L 521,315 L 516,319 L 492,318 L 485,320 L 472,327 L 457,340 L 452,340 L 447,335 L 446,330 L 451,321 L 461,311 L 476,302 L 490,298 L 505,298 L 517,302 Z M 678,286 L 683,280 L 693,275 L 704,272 L 720,272 L 735,276 L 747,283 L 754,290 L 755,298 L 751,303 L 746,304 L 728,294 L 714,291 L 701,292 L 689,297 L 683,297 L 678,292 Z"/>
<path fill="#56c3f5" fill-rule="evenodd" d="M 515,1003 L 510,1056 L 527,1061 L 537,1070 L 539,1075 L 539,1087 L 546,1090 L 554,1090 L 560,1086 L 568,1009 L 536,1009 Z M 812,894 L 801,896 L 777,896 L 759,892 L 752,949 L 761,953 L 771,953 L 779,950 L 781,938 L 788,930 L 809,922 Z M 518,818 L 499,912 L 512,916 L 531,823 Z M 538,579 L 515,587 L 492,599 L 470,613 L 458,623 L 488,657 L 501,669 L 529,648 L 539,620 L 542,617 L 544,619 L 539,671 L 531,725 L 539,733 L 546,746 L 547,768 L 544,778 L 537,789 L 521,802 L 556,811 L 593,814 L 596,701 L 596,614 L 575,601 L 555,581 Z M 693,568 L 686,570 L 684,576 L 674,590 L 654,609 L 666,804 L 690,795 L 711,783 L 701,767 L 699,758 L 699,747 L 703,734 L 715,719 L 704,635 L 703,613 L 705,612 L 708,615 L 718,643 L 744,661 L 758,647 L 785,614 L 771,603 L 744,587 L 716,574 Z"/>
<path fill="#3f352d" fill-rule="evenodd" d="M 864,213 L 845,187 L 829,172 L 804,156 L 781,148 L 775,143 L 776,139 L 789,127 L 799,122 L 798,120 L 776,119 L 766,122 L 758,127 L 754,127 L 751,124 L 750,108 L 745,88 L 737,72 L 726,59 L 722,95 L 720,102 L 716,107 L 711,107 L 685,80 L 661,64 L 632,51 L 614,46 L 588,42 L 579,43 L 587,54 L 597,73 L 597,78 L 593,82 L 564,77 L 533,77 L 506,83 L 488,90 L 463,95 L 432,94 L 407,86 L 407,89 L 418,108 L 432,122 L 432,127 L 428,130 L 418,131 L 398,137 L 368,153 L 354,159 L 338,163 L 340,167 L 354,175 L 379,182 L 381,184 L 381,188 L 360,203 L 343,219 L 326,242 L 313,267 L 312,273 L 338,264 L 345,264 L 348,267 L 348,272 L 337,292 L 329,318 L 326,337 L 326,358 L 328,358 L 341,343 L 346,343 L 349,346 L 349,363 L 354,387 L 365,412 L 373,421 L 369,392 L 370,362 L 374,338 L 383,309 L 397,280 L 408,263 L 426,241 L 447,221 L 463,209 L 467,209 L 469,211 L 469,215 L 458,244 L 454,263 L 456,263 L 508,231 L 567,184 L 571,184 L 574,187 L 567,216 L 556,244 L 556,247 L 577,240 L 599,229 L 624,213 L 639,201 L 668,171 L 672,171 L 676,177 L 672,200 L 664,226 L 685,212 L 702,193 L 711,177 L 716,172 L 719,172 L 724,178 L 725,187 L 752,205 L 777,230 L 789,246 L 800,265 L 802,264 L 802,259 L 804,256 L 810,255 L 813,258 L 825,283 L 832,304 L 841,347 L 845,317 L 842,283 L 847,280 L 855,284 L 860,289 L 863,290 L 859,272 L 850,249 L 843,236 L 829,217 L 828,211 L 831,208 L 842,208 Z"/>
<path fill="#191a19" fill-rule="evenodd" d="M 574,1095 L 561,1103 L 546,1104 L 529,1097 L 525,1093 L 526,1080 L 521,1073 L 503,1068 L 492,1069 L 489,1073 L 488,1083 L 506,1089 L 514,1094 L 520,1101 L 517,1103 L 501,1095 L 479,1092 L 475,1095 L 475,1097 L 493,1101 L 504,1111 L 501,1112 L 483,1105 L 466,1104 L 461,1109 L 480,1113 L 485,1116 L 489,1122 L 487,1123 L 475,1118 L 464,1116 L 452,1116 L 435,1126 L 422,1138 L 419,1144 L 417,1153 L 419,1166 L 425,1170 L 437,1173 L 469,1174 L 514,1165 L 514,1158 L 504,1144 L 505,1142 L 502,1141 L 503,1139 L 488,1127 L 500,1118 L 501,1120 L 507,1122 L 516,1131 L 528,1150 L 530,1156 L 529,1158 L 532,1159 L 537,1157 L 535,1147 L 528,1133 L 521,1127 L 522,1125 L 512,1117 L 513,1112 L 523,1107 L 539,1124 L 542,1125 L 554,1152 L 570,1147 L 575,1144 L 576,1135 Z M 719,1050 L 715,1054 L 709,1068 L 705,1082 L 705,1090 L 719,1073 L 746,1079 L 752,1084 L 755,1096 L 754,1099 L 756,1100 L 763,1121 L 744,1152 L 736,1151 L 735,1149 L 729,1150 L 717,1147 L 719,1151 L 722,1151 L 721,1154 L 727,1163 L 742,1176 L 759,1186 L 767,1187 L 769,1185 L 765,1177 L 757,1169 L 747,1153 L 766,1123 L 777,1123 L 778,1125 L 800,1125 L 801,1123 L 810,1123 L 816,1133 L 832,1153 L 815,1181 L 815,1184 L 821,1190 L 837,1185 L 851,1177 L 873,1156 L 884,1136 L 887,1127 L 890,1110 L 890,1088 L 884,1066 L 877,1052 L 866,1038 L 860,1040 L 861,1053 L 858,1069 L 850,1072 L 843,1072 L 842,1074 L 828,1078 L 818,1073 L 815,1069 L 789,1052 L 789,1042 L 791,1041 L 789,1039 L 791,1037 L 789,1036 L 788,1052 L 751,1078 L 739,1076 L 726,1072 L 725,1070 L 722,1071 L 719,1066 L 721,1064 L 721,1055 Z M 858,1071 L 887,1098 L 887,1116 L 884,1120 L 880,1137 L 873,1146 L 861,1148 L 856,1147 L 855,1149 L 835,1152 L 813,1121 L 817,1115 L 816,1113 L 818,1112 L 817,1110 L 822,1099 L 821,1096 L 825,1083 L 830,1079 L 832,1080 L 833,1078 L 840,1076 L 843,1077 L 844,1075 L 846,1076 Z M 893,982 L 889,975 L 878,967 L 857,961 L 846,963 L 828,974 L 831,977 L 829,981 L 821,987 L 822,989 L 818,991 L 809,1012 L 843,1013 L 863,1011 L 891,1004 L 894,999 Z M 845,957 L 838,956 L 831,958 L 812,969 L 811,965 L 817,959 L 833,952 L 831,950 L 825,950 L 800,962 L 800,957 L 806,952 L 823,944 L 823,939 L 819,935 L 809,935 L 797,939 L 793,943 L 792,956 L 785,962 L 776,966 L 753,966 L 745,962 L 739,956 L 734,981 L 736,1001 L 749,1005 L 773,1008 L 775,997 L 789,974 L 797,967 L 809,969 L 810,971 L 796,987 L 787,1009 L 795,1010 L 799,996 L 804,987 L 820,971 L 825,972 L 831,965 Z M 770,802 L 753,796 L 739,797 L 725,793 L 712,802 L 677,818 L 650,826 L 625,830 L 572,830 L 532,823 L 532,831 L 530,832 L 531,837 L 529,838 L 530,841 L 528,843 L 529,846 L 526,853 L 527,857 L 525,858 L 526,862 L 524,863 L 525,868 L 523,869 L 524,873 L 522,874 L 523,878 L 521,879 L 522,884 L 521,889 L 519,890 L 520,894 L 518,895 L 519,900 L 517,901 L 518,904 L 516,905 L 516,917 L 559,925 L 603,925 L 606,923 L 619,863 L 613,863 L 612,861 L 622,857 L 654,850 L 661,851 L 657,857 L 658,859 L 705,881 L 711,882 L 739,835 L 750,821 Z M 448,630 L 449,633 L 485,672 L 491,676 L 498,671 L 490,660 L 478,649 L 478,647 L 468,638 L 457,624 Z M 791,617 L 785,615 L 774,631 L 748,661 L 749,664 L 756,667 L 763,661 L 794,623 L 794,620 Z M 652,612 L 627,628 L 599,617 L 599,660 L 597,661 L 598,719 L 596,725 L 597,757 L 595,765 L 596,792 L 594,803 L 595,814 L 632,812 L 663,805 L 664,790 L 662,786 L 662,759 L 660,753 L 661,741 L 659,737 L 660,726 L 658,723 L 659,709 L 657,707 L 658,695 L 656,692 L 657,679 L 655,676 L 656,663 L 654,661 L 655,648 L 653,645 L 654,633 L 652,629 Z"/>
<path fill="#020101" fill-rule="evenodd" d="M 671,464 L 668,462 L 668,460 L 661,460 L 656,468 L 647,477 L 637,483 L 623,487 L 606,487 L 597,485 L 587,480 L 578,471 L 570,472 L 568,475 L 568,481 L 571,482 L 575,489 L 585,495 L 588,494 L 589,497 L 608,501 L 609,499 L 611,499 L 612,501 L 623,501 L 640,497 L 642,494 L 645,495 L 659,486 L 669,474 L 671,470 Z M 500,354 L 496,355 L 495,358 L 493,356 L 487,359 L 485,363 L 483,362 L 471,377 L 467,387 L 465,398 L 466,417 L 472,435 L 483,450 L 487,453 L 489,452 L 490,455 L 499,459 L 518,460 L 531,455 L 531,453 L 535,452 L 545,440 L 550,429 L 552,420 L 551,394 L 543,375 L 530,361 L 523,357 L 519,358 L 518,355 L 514,354 Z M 495,370 L 505,373 L 512,380 L 515,388 L 515,395 L 512,403 L 501,412 L 492,412 L 488,410 L 483,405 L 479,397 L 479,387 L 482,379 L 488,373 Z M 710,329 L 703,330 L 693,334 L 686,339 L 679,347 L 673,359 L 671,367 L 670,389 L 674,405 L 679,415 L 691,428 L 706,435 L 721,435 L 729,433 L 736,429 L 743,423 L 751,411 L 756,394 L 756,374 L 750,355 L 743,344 L 737,338 L 732,335 L 730,336 L 727,332 Z M 698,346 L 704,346 L 710,349 L 715,354 L 719,364 L 718,374 L 716,378 L 709,385 L 704,387 L 698,387 L 693,385 L 686,378 L 683,370 L 683,364 L 687,354 L 693,348 Z M 520,309 L 516,306 L 515,303 L 504,300 L 492,300 L 479,303 L 464,311 L 454,320 L 449,328 L 449,335 L 453,338 L 459,337 L 470,326 L 488,317 L 498,315 L 512,317 L 513,315 L 517,316 L 520,312 Z M 680,286 L 680,291 L 682,294 L 691,294 L 700,291 L 703,288 L 704,290 L 715,289 L 725,291 L 735,295 L 746,302 L 752,300 L 753,296 L 751,295 L 753,292 L 747,285 L 732,277 L 718,274 L 706,274 L 697,276 L 685,281 Z M 392,61 L 386,65 L 384,74 L 389,93 L 401,116 L 352,139 L 350,142 L 347,141 L 332,146 L 315,148 L 310,152 L 311,154 L 309,155 L 309,161 L 313,168 L 324,179 L 338,188 L 344,190 L 345,192 L 324,213 L 306,240 L 295,264 L 288,288 L 288,294 L 292,297 L 292,299 L 298,300 L 313,293 L 318,293 L 311,317 L 308,345 L 310,376 L 312,387 L 314,390 L 318,392 L 326,391 L 333,382 L 335,383 L 342,407 L 355,430 L 358,431 L 357,433 L 373,450 L 385,455 L 396,480 L 407,497 L 436,528 L 472,552 L 512,569 L 511,571 L 475,590 L 431,622 L 429,630 L 431,635 L 438,644 L 411,671 L 405,682 L 404,687 L 406,699 L 412,708 L 435,730 L 464,751 L 463,771 L 465,778 L 473,791 L 486,800 L 500,804 L 503,812 L 486,895 L 483,918 L 485,922 L 488,922 L 488,924 L 508,930 L 510,932 L 505,976 L 501,986 L 494,1055 L 482,1061 L 478,1068 L 477,1077 L 475,1081 L 465,1085 L 458,1096 L 451,1099 L 442,1108 L 424,1118 L 412,1129 L 407,1138 L 404,1149 L 404,1161 L 406,1170 L 408,1174 L 417,1182 L 417,1190 L 422,1198 L 427,1200 L 438,1200 L 444,1195 L 446,1188 L 449,1187 L 457,1188 L 459,1190 L 459,1195 L 461,1199 L 470,1203 L 482,1200 L 486,1194 L 484,1190 L 487,1188 L 489,1184 L 493,1185 L 494,1190 L 497,1194 L 506,1196 L 515,1193 L 517,1191 L 516,1188 L 519,1187 L 519,1178 L 528,1174 L 534,1173 L 536,1178 L 539,1179 L 538,1181 L 543,1183 L 549,1183 L 555,1181 L 558,1178 L 561,1171 L 568,1175 L 576,1175 L 581,1173 L 585,1167 L 585,1154 L 588,1148 L 588,1110 L 585,1083 L 583,1079 L 577,1074 L 577,1067 L 587,993 L 586,984 L 592,942 L 596,940 L 612,939 L 615,935 L 618,935 L 630,880 L 634,868 L 641,867 L 710,900 L 718,899 L 725,892 L 725,889 L 728,886 L 730,886 L 744,872 L 745,877 L 738,938 L 733,941 L 733,943 L 730,944 L 728,948 L 722,976 L 722,998 L 724,1007 L 728,1013 L 728,1019 L 714,1033 L 706,1044 L 699,1057 L 693,1074 L 690,1093 L 690,1108 L 694,1130 L 702,1150 L 718,1173 L 731,1185 L 753,1198 L 767,1203 L 789,1207 L 814,1206 L 836,1200 L 854,1191 L 875,1174 L 888,1157 L 899,1132 L 903,1107 L 901,1106 L 901,1102 L 903,1101 L 903,1098 L 901,1097 L 901,1093 L 903,1092 L 902,1082 L 897,1063 L 894,1062 L 895,1058 L 881,1035 L 893,1030 L 896,1024 L 896,1016 L 900,1014 L 905,1007 L 904,1002 L 906,1001 L 907,995 L 906,986 L 904,985 L 905,982 L 903,981 L 905,979 L 901,975 L 902,973 L 900,969 L 887,958 L 875,953 L 862,951 L 856,947 L 848,947 L 844,943 L 835,940 L 834,933 L 831,928 L 824,924 L 832,851 L 832,836 L 829,825 L 825,818 L 814,808 L 795,800 L 792,794 L 770,786 L 770,784 L 776,778 L 781,768 L 783,759 L 782,744 L 811,722 L 835,699 L 841,690 L 843,684 L 843,676 L 841,670 L 833,658 L 806,633 L 813,621 L 813,615 L 808,609 L 767,581 L 733,563 L 730,564 L 728,561 L 719,558 L 718,556 L 747,540 L 778,516 L 796,497 L 817,466 L 827,445 L 833,428 L 838,407 L 840,389 L 847,383 L 856,363 L 861,342 L 862,315 L 863,314 L 872,320 L 877,320 L 883,314 L 883,301 L 879,276 L 872,254 L 862,234 L 865,233 L 878,239 L 887,238 L 890,233 L 890,226 L 880,203 L 861,177 L 846,162 L 832,151 L 808,138 L 810,135 L 828,128 L 831,122 L 830,117 L 818,108 L 800,102 L 774,101 L 768,103 L 761,79 L 751,60 L 735,41 L 719,30 L 713,30 L 707,36 L 708,72 L 706,74 L 681,54 L 648,37 L 610,26 L 576,22 L 557,23 L 553,26 L 554,29 L 551,32 L 551,34 L 554,36 L 554,40 L 556,43 L 559,44 L 558,46 L 560,46 L 561,50 L 564,51 L 564,54 L 567,57 L 566,59 L 528,59 L 505,64 L 472,75 L 454,77 L 426,74 L 410,68 L 400,62 Z M 468,1188 L 475,1186 L 477,1189 L 475,1192 L 470,1192 Z M 427,1185 L 434,1185 L 435,1189 L 432,1191 L 427,1188 Z M 502,1184 L 503,1181 L 510,1181 L 510,1183 L 506,1186 Z M 550,1167 L 551,1172 L 549,1174 L 545,1174 L 543,1170 Z M 569,1161 L 575,1159 L 576,1163 L 574,1165 L 571,1165 Z M 575,1095 L 577,1135 L 576,1144 L 570,1148 L 564,1149 L 542,1158 L 536,1158 L 530,1160 L 529,1162 L 478,1174 L 437,1174 L 425,1171 L 418,1166 L 416,1158 L 418,1144 L 421,1138 L 435,1125 L 452,1115 L 470,1116 L 488,1122 L 488,1120 L 480,1114 L 459,1109 L 466,1103 L 483,1104 L 503,1111 L 498,1105 L 493,1102 L 480,1098 L 475,1098 L 473,1096 L 479,1091 L 501,1094 L 518,1102 L 517,1098 L 511,1093 L 499,1087 L 489,1085 L 487,1083 L 488,1073 L 492,1068 L 503,1067 L 521,1072 L 527,1080 L 526,1093 L 529,1096 L 546,1103 L 561,1102 L 573,1093 Z M 823,1026 L 830,1025 L 831,1028 L 829,1031 L 825,1031 Z M 735,1029 L 745,1031 L 753,1027 L 755,1031 L 759,1033 L 769,1034 L 772,1033 L 778,1025 L 784,1025 L 787,1029 L 787,1033 L 790,1036 L 796,1038 L 808,1037 L 814,1030 L 819,1038 L 823,1040 L 832,1040 L 837,1037 L 840,1029 L 842,1028 L 844,1030 L 845,1035 L 849,1038 L 862,1039 L 866,1037 L 871,1042 L 878,1052 L 888,1075 L 891,1088 L 891,1110 L 888,1127 L 879,1148 L 871,1160 L 859,1172 L 841,1184 L 821,1191 L 819,1193 L 809,1195 L 785,1195 L 768,1191 L 767,1188 L 762,1188 L 753,1184 L 742,1177 L 726,1163 L 718,1150 L 712,1144 L 705,1127 L 703,1115 L 700,1112 L 702,1111 L 701,1098 L 704,1090 L 704,1082 L 711,1060 L 714,1054 L 721,1046 L 722,1041 Z M 858,1023 L 860,1025 L 857,1030 L 854,1030 L 851,1026 L 853,1024 Z M 798,1023 L 803,1023 L 805,1025 L 802,1030 L 797,1028 L 796,1025 Z M 761,1020 L 767,1019 L 769,1022 L 767,1025 L 763,1025 L 761,1023 Z M 885,1018 L 887,1022 L 884,1025 L 881,1025 L 879,1021 Z M 739,1014 L 744,1015 L 746,1017 L 744,1022 L 738,1021 L 737,1016 Z M 515,1001 L 530,1006 L 544,1008 L 561,1008 L 568,1006 L 570,1008 L 561,1087 L 554,1092 L 547,1092 L 538,1088 L 537,1075 L 535,1070 L 529,1064 L 508,1056 L 513,1003 Z M 525,935 L 545,939 L 567,940 L 576,942 L 574,958 L 576,959 L 574,960 L 571,988 L 569,990 L 563,991 L 562,993 L 547,993 L 546,991 L 531,989 L 522,986 L 518,983 L 523,941 Z M 737,959 L 740,955 L 745,961 L 753,965 L 776,965 L 785,961 L 791,956 L 792,943 L 797,938 L 809,934 L 819,934 L 823,937 L 824,944 L 806,953 L 801,957 L 800,961 L 819,951 L 831,949 L 834,952 L 817,960 L 812,965 L 812,968 L 825,960 L 838,955 L 843,955 L 847,957 L 831,966 L 825,974 L 827,974 L 839,965 L 854,960 L 878,966 L 886,971 L 892,978 L 895,987 L 895,999 L 891,1005 L 883,1008 L 843,1014 L 800,1013 L 795,1011 L 780,1010 L 777,1012 L 773,1009 L 740,1004 L 735,1001 L 733,991 L 733,981 Z M 812,892 L 814,894 L 811,919 L 809,925 L 798,927 L 788,932 L 782,940 L 781,950 L 770,955 L 762,955 L 755,953 L 750,949 L 756,894 L 758,890 L 775,894 L 803,894 Z M 780,813 L 785,813 L 804,821 L 812,829 L 816,840 L 814,872 L 813,875 L 810,877 L 797,879 L 782,879 L 764,876 L 761,874 L 762,864 L 759,863 L 760,861 L 744,855 L 760,832 Z M 771,802 L 751,821 L 740,835 L 710,884 L 655,858 L 660,853 L 660,851 L 654,851 L 613,861 L 619,862 L 620,865 L 607,918 L 607,923 L 603,926 L 549,925 L 527,921 L 515,917 L 512,918 L 499,914 L 497,912 L 514,822 L 517,816 L 531,820 L 536,823 L 563,828 L 612,830 L 645,826 L 677,817 L 712,801 L 725,792 L 739,796 L 753,795 Z M 499,734 L 510,734 L 520,739 L 527,747 L 530,757 L 530,763 L 526,774 L 517,783 L 508,787 L 499,787 L 491,784 L 483,777 L 480,770 L 477,768 L 479,754 L 483,745 L 489,739 Z M 736,727 L 747,727 L 752,729 L 767,744 L 767,757 L 765,764 L 755,775 L 748,778 L 736,778 L 732,776 L 730,777 L 720,766 L 717,759 L 717,747 L 719,741 L 725,733 Z M 423,686 L 429,678 L 450,659 L 485,694 L 488,695 L 496,693 L 508,684 L 510,680 L 512,681 L 518,676 L 521,676 L 521,683 L 515,717 L 501,717 L 489,720 L 479,726 L 472,734 L 462,727 L 460,728 L 459,725 L 441,711 L 423,692 Z M 825,679 L 823,685 L 806,702 L 775,727 L 767,719 L 759,714 L 749,711 L 731,711 L 725,669 L 727,668 L 730,671 L 732,670 L 734,674 L 744,681 L 747,681 L 754,687 L 758,687 L 779,667 L 794,649 L 796,649 L 820,671 Z M 657,576 L 657,578 L 625,606 L 611,600 L 586,583 L 587,581 L 613,581 L 644,578 L 655,575 Z M 796,621 L 771,653 L 755,669 L 716,643 L 708,619 L 705,619 L 706,636 L 717,719 L 710,726 L 705,734 L 701,747 L 701,759 L 703,767 L 713,783 L 701,791 L 669,805 L 664,805 L 632,813 L 593,816 L 552,812 L 528,806 L 519,802 L 521,799 L 529,795 L 536,788 L 543,776 L 545,769 L 544,746 L 538,734 L 529,725 L 539,655 L 542,620 L 536,630 L 531,648 L 501,671 L 497,672 L 491,677 L 474,662 L 447,631 L 459,619 L 494,596 L 515,585 L 538,577 L 555,579 L 570,595 L 583,605 L 603,618 L 627,627 L 652,610 L 674,588 L 683,575 L 685,569 L 690,566 L 716,572 L 744,585 L 778,606 Z M 818,325 L 822,348 L 823,390 L 817,421 L 802,457 L 782,486 L 768,501 L 748,518 L 721,534 L 720,537 L 717,536 L 707,541 L 705,544 L 702,543 L 698,547 L 694,546 L 680,551 L 678,554 L 673,553 L 670,556 L 661,556 L 659,559 L 657,557 L 646,560 L 634,561 L 631,564 L 628,564 L 627,562 L 612,564 L 580,564 L 564,562 L 563,564 L 561,564 L 558,561 L 541,558 L 535,559 L 532,556 L 507,549 L 480,536 L 478,537 L 475,533 L 468,529 L 466,530 L 464,526 L 458,522 L 455,522 L 453,518 L 445,512 L 443,512 L 442,509 L 424,490 L 408,466 L 399,447 L 394,432 L 388,399 L 388,369 L 392,343 L 399,319 L 409,296 L 421,276 L 435,259 L 437,260 L 432,282 L 436,288 L 443,289 L 471,276 L 495,262 L 504,254 L 506,255 L 542,228 L 544,230 L 531,259 L 531,265 L 533,265 L 535,269 L 538,270 L 545,269 L 548,266 L 550,268 L 562,265 L 589,255 L 619,239 L 645,220 L 647,222 L 639,242 L 639,247 L 644,252 L 650,252 L 676,241 L 691,231 L 707,216 L 715,205 L 718,204 L 744,223 L 760,239 L 774,258 L 777,259 L 776,261 L 784,273 L 789,284 L 792,286 L 791,289 L 796,302 L 799,303 L 798,305 L 804,307 L 811,302 Z M 866,214 L 864,216 L 854,212 L 833,209 L 829,212 L 830,216 L 842,232 L 854,254 L 861,273 L 865,290 L 864,294 L 851,283 L 845,282 L 843,285 L 846,305 L 846,327 L 844,344 L 841,353 L 839,352 L 837,332 L 831,306 L 823,282 L 812,259 L 809,256 L 805,257 L 803,262 L 803,269 L 801,270 L 784,241 L 770,224 L 750,205 L 723,187 L 721,175 L 716,174 L 713,177 L 703,194 L 689,210 L 668,226 L 664,228 L 661,227 L 668,209 L 674,181 L 674,175 L 670,172 L 643,199 L 618,219 L 589,236 L 557,249 L 554,249 L 553,247 L 566,214 L 572,191 L 571,185 L 568,185 L 533,214 L 506,234 L 472,256 L 453,266 L 452,262 L 456,246 L 468,212 L 464,210 L 449,221 L 425,244 L 411,261 L 398,281 L 385,308 L 378,329 L 372,358 L 371,396 L 375,420 L 374,425 L 366,416 L 356,398 L 349,374 L 347,361 L 347,346 L 345,344 L 341,345 L 333,353 L 326,363 L 325,362 L 324,340 L 327,319 L 334,295 L 347,268 L 345,266 L 337,266 L 310,276 L 309,274 L 320,249 L 337,224 L 358,203 L 379,188 L 378,183 L 355,177 L 343,171 L 334,163 L 362,154 L 396,136 L 419,129 L 429,128 L 431,126 L 431,123 L 413,103 L 405,88 L 405,83 L 413,87 L 431,92 L 466,93 L 489,88 L 511,80 L 536,75 L 560,75 L 576,77 L 591,81 L 595,78 L 595,72 L 584,52 L 576,41 L 585,40 L 602,42 L 624,47 L 653,58 L 681,75 L 711,105 L 716,105 L 718,103 L 723,78 L 723,56 L 725,55 L 734,65 L 745,84 L 752,109 L 753,125 L 757,126 L 769,119 L 776,117 L 792,117 L 801,119 L 803,121 L 786,131 L 778,139 L 778,145 L 801,153 L 830,171 L 845,185 L 858,201 Z"/>
</g></svg>